<svg xmlns="http://www.w3.org/2000/svg" width="40" height="40" viewBox="0 0 40 40">
    <defs>
        <style>
            .cls-2{fill:#fff}
        </style>
    </defs>
    <g id="Group_20939" transform="translate(-55 -11)">
        <rect id="Rectangle_5125" width="40" height="40" fill="#e84646" rx="5" transform="translate(55 11)"/>
        <g id="Group_20938" transform="translate(-79.979 -1040.839)">
            <path id="Shape_4_copy_7" d="M4.089 7.232C2.1 7.232.5 6.327.109 4.98a3.184 3.184 0 0 1 .582-2.762A5.441 5.441 0 0 1 3.608.259 6.4 6.4 0 0 1 5.405 0c1.986 0 3.586.921 3.982 2.291a3.157 3.157 0 0 1-.557 2.74 5.378 5.378 0 0 1-2.895 1.936 6.579 6.579 0 0 1-1.846.265zm1.3-6.053a5.114 5.114 0 0 0-1.431.208C2.2 1.9 1.192 3.208 1.564 4.5c.246.85 1.236 1.38 2.577 1.38a5.5 5.5 0 0 0 1.523-.222C7.448 5.137 8.4 3.919 8.022 2.625 7.768 1.747 6.734 1.18 5.386 1.18z" class="cls-2" transform="translate(155.816 1057.839)"/>
            <path id="Shape_4_copy_7-2" d="M4.664 7.444a5.216 5.216 0 0 1-2.076-.457A4.248 4.248 0 0 1 .247 4.626a3.617 3.617 0 0 1 .069-2.794A3.343 3.343 0 0 1 3.485 0a5.588 5.588 0 0 1 2.222.491 4.053 4.053 0 0 1 2.3 2.275 3.5 3.5 0 0 1-.1 2.74 3.446 3.446 0 0 1-3.243 1.938zm-1.12-6.122a2.038 2.038 0 0 0-1.959 1.122 2.453 2.453 0 0 0 .055 1.992 2.929 2.929 0 0 0 1.813 1.609 3.861 3.861 0 0 0 1.138.176 2.561 2.561 0 0 0 2.363-1.254 1.959 1.959 0 0 0 .037-1.479 3.1 3.1 0 0 0-1.678-1.732 4.223 4.223 0 0 0-1.769-.434z" class="cls-2" transform="translate(142.544 1060.731)"/>
            <path id="Shape_1_copy_5" d="M706.674 3880.452s-3.794-3.813-8.031-1.745a1.478 1.478 0 0 0-.139.085c-.045.031-.091.061-.128.082a.985.985 0 0 1-.231.156c-.969.439-3.44 2.755-1.349 6.883 1.089 2.02 6.693 6.216 11.6 7.669-1.968-1.707-7.1-4.882-9.168-7.513a4.028 4.028 0 0 1-1.108-4.708c.342-.539 2.08-3.126 8.554-.909z" class="cls-2" transform="translate(-555 -2808.798)"/>
            <path id="Shape_2_copy_5" d="M709.862 3880.019a8.974 8.974 0 0 1 6.244-5.113c.862-.092 7.388-.923 9.521 5.925.008.06.015.135.028.225a7.239 7.239 0 0 1-1.534 5.875c-.908 1.1-5.984 6.252-12.235 6.446 1.089-.457 9.194-3.342 11.6-9.231.227-1.05 1.525-4.775-4.148-7.332-.999-.274-5.346-1.498-9.476 3.205z" class="cls-2" transform="translate(-556.716 -2808.395)"/>
        </g>
    </g>
</svg>
